#N canvas 596 186 654 529 10;
#X obj 302 226 t b b;
#X msg 302 256 64;
#X msg 344 255 71;
#X obj 278 301 makenote 64 250;
#X obj 278 333 noteout 1;
#X msg 211 256 60;
#X msg 258 256 67;
#X obj 211 225 t b b;
#X obj 210 195 bng 15 250 50 0 empty empty empty 17 7 0 10 -262144
-1 -1;
#X obj 303 194 bng 15 250 50 0 empty empty empty 17 7 0 10 -262144
-1 -1;
#X obj 236 136 moses 50;
#X floatatom 342 156 5 0 0 0 - - -;
#X floatatom 178 158 5 0 0 0 - - -;
#X floatatom 236 85 5 0 0 0 - - -;
#X connect 0 0 1 0;
#X connect 0 1 2 0;
#X connect 1 0 3 0;
#X connect 2 0 3 0;
#X connect 3 0 4 0;
#X connect 3 1 4 1;
#X connect 5 0 3 0;
#X connect 6 0 3 0;
#X connect 7 0 5 0;
#X connect 7 1 6 0;
#X connect 8 0 7 0;
#X connect 9 0 0 0;
#X connect 10 0 8 0;
#X connect 10 0 12 0;
#X connect 10 1 9 0;
#X connect 10 1 11 0;
#X connect 13 0 10 0;
