#N canvas 465 322 1068 712 10;
#X obj 24 16 bng 15 250 50 0 empty empty empty 17 7 0 10 -262144 -1
-1;
#X obj 24 44 t b b;
#X msg 24 71 4;
#X msg 76 72 3;
#X obj 24 101 pow 2;
#X obj 76 101 pow 2;
#X obj 24 130 +;
#X floatatom 24 159 5 0 0 0 - - -;
#X obj 24 189 sqrt;
#X floatatom 24 217 5 0 0 0 - - -;
#X text 58 14 a^2 + b^2 = c^3;
#X obj 22 258 bng 15 250 50 0 empty empty empty 17 7 0 10 -262144 -1
-1;
#X obj 22 286 t b b;
#X msg 22 313 4;
#X msg 74 314 3;
#X obj 22 342 expr sqrt(pow($f1 \, 2) + pow($f2 \, 2));
#X floatatom 22 376 5 0 0 0 - - -;
#X obj 366 14 bng 15 250 50 0 empty empty empty 17 7 0 10 -262144 -1
-1;
#X obj 366 42 t b b;
#X msg 366 69 4;
#X msg 418 70 3;
#X obj 366 101 expr $f1 + $f2 \; $f1 * $f2 \; $f1 / $f2 \; pow($f1
\, 2) + pow($f2 \, 2) \;;
#X floatatom 366 182 5 0 0 0 - - -;
#X floatatom 416 183 5 0 0 0 - - -;
#X floatatom 468 184 5 0 0 0 - - -;
#X floatatom 519 183 5 0 0 0 - - -;
#X msg 383 236 3 8 19;
#X floatatom 383 300 5 0 0 0 - - -;
#X obj 383 263 expr $f1 + $f2 + $f3 \; ($f1 * $f2) + $f3;
#X floatatom 506 301 5 0 0 0 - - -;
#X obj 333 331 bng 15 250 50 0 empty empty empty 17 7 0 10 -262144
-1 -1;
#X obj 333 356 t b b b;
#X msg 414 398 7;
#X msg 372 398 2;
#X msg 328 397 4;
#X obj 327 438 expr if($f1 > $f2 \, 1 \, 0);
#X floatatom 327 474 5 0 0 0 - - -;
#X obj 517 334 bng 15 250 50 0 empty empty empty 17 7 0 10 -262144
-1 -1;
#X obj 517 359 t b b b;
#X msg 598 401 7;
#X msg 556 401 2;
#X msg 512 400 4;
#X floatatom 511 477 5 0 0 0 - - -;
#X obj 511 441 expr if($f1 > $f2 \, $f3 \, 0);
#X obj 703 332 bng 15 250 50 0 empty empty empty 17 7 0 10 -262144
-1 -1;
#X obj 703 357 t b b b;
#X msg 784 399 7;
#X msg 742 399 2;
#X msg 698 398 4;
#X floatatom 697 475 5 0 0 0 - - -;
#X floatatom 892 478 5 0 0 0 - - -;
#X obj 697 439 expr if($f1 > $f2 \, $f3 \, 0) \; if($f1 > $f2 && $f2
> $f3 \, 1 \, pow($f3 \, 2)) \;;
#X connect 0 0 1 0;
#X connect 1 0 2 0;
#X connect 1 1 3 0;
#X connect 2 0 4 0;
#X connect 3 0 5 0;
#X connect 4 0 6 0;
#X connect 5 0 6 1;
#X connect 6 0 7 0;
#X connect 7 0 8 0;
#X connect 8 0 9 0;
#X connect 11 0 12 0;
#X connect 12 0 13 0;
#X connect 12 1 14 0;
#X connect 13 0 15 0;
#X connect 14 0 15 1;
#X connect 15 0 16 0;
#X connect 17 0 18 0;
#X connect 18 0 19 0;
#X connect 18 1 20 0;
#X connect 19 0 21 0;
#X connect 20 0 21 1;
#X connect 21 0 22 0;
#X connect 21 1 23 0;
#X connect 21 2 24 0;
#X connect 21 3 25 0;
#X connect 26 0 28 0;
#X connect 28 0 27 0;
#X connect 28 1 29 0;
#X connect 30 0 31 0;
#X connect 31 0 34 0;
#X connect 31 1 33 0;
#X connect 31 2 32 0;
#X connect 33 0 35 1;
#X connect 34 0 35 0;
#X connect 35 0 36 0;
#X connect 37 0 38 0;
#X connect 38 0 41 0;
#X connect 38 1 40 0;
#X connect 38 2 39 0;
#X connect 39 0 43 2;
#X connect 40 0 43 1;
#X connect 41 0 43 0;
#X connect 43 0 42 0;
#X connect 44 0 45 0;
#X connect 45 0 48 0;
#X connect 45 1 47 0;
#X connect 45 2 46 0;
#X connect 46 0 51 2;
#X connect 47 0 51 1;
#X connect 48 0 51 0;
#X connect 51 0 49 0;
#X connect 51 1 50 0;
