#N canvas 592 264 676 665 10;
#X obj 265 223 pack f f f f;
#X msg 256 154 46;
#X msg 298 156 46.98;
#X msg 351 158 124.5;
#X msg 410 158 42;
#X obj 265 272 print list;
#X obj 277 56 bng 15 250 50 0 empty empty empty 17 7 0 10 -262144 -1
-1;
#X msg 260 342 46 46.98 124.5 42;
#X obj 263 386 unpack f f f f;
#X floatatom 242 439 5 0 0 0 - - -;
#X floatatom 293 439 5 0 0 0 - - -;
#X floatatom 342 437 5 0 0 0 - - -;
#X floatatom 391 436 5 0 0 0 - - -;
#X obj 259 314 bng 15 250 50 0 empty empty empty 17 7 0 10 -262144
-1 -1;
#X connect 0 0 5 0;
#X connect 1 0 0 0;
#X connect 2 0 0 1;
#X connect 3 0 0 2;
#X connect 4 0 0 3;
#X connect 6 0 4 0;
#X connect 6 0 3 0;
#X connect 6 0 2 0;
#X connect 6 0 1 0;
#X connect 7 0 8 0;
#X connect 8 0 9 0;
#X connect 8 1 10 0;
#X connect 8 2 11 0;
#X connect 8 3 12 0;
#X connect 13 0 7 0;
