#N canvas 626 154 599 574 10;
#X obj 45 119 metro 500;
#X obj 44 165 bng 15 250 50 0 empty empty empty 17 7 0 10 -262144 -1
-1;
#X msg 46 28 1;
#X msg 61 53 0;
#X msg 97 54 bang;
#X msg 108 83 stop;
#X obj 333 294 metro;
#X msg 352 156 60000;
#X floatatom 419 157 5 0 0 0 - - -;
#X obj 351 201 /;
#X obj 333 108 t b b b;
#X obj 333 53 bng 15 250 50 0 empty empty empty 17 7 0 10 -262144 -1
-1;
#X floatatom 436 218 5 0 0 0 - - -;
#X obj 351 233 i;
#X floatatom 435 249 5 0 0 0 - - -;
#X msg 288 52 0;
#X msg 447 93 60;
#X obj 425 38 loadbang;
#X obj 332 336 i;
#X obj 365 336 + 1;
#X floatatom 267 312 5 0 0 0 - - -;
#X floatatom 332 379 5 0 0 0 - - -;
#X obj 332 410 % 8;
#X floatatom 332 443 5 0 0 0 - - -;
#X msg 384 293 0;
#X text 334 30 start;
#X text 285 29 stop;
#X text 460 66 auto load x bpm;
#X text 470 157 bpm counter;
#X text 234 146 total # of miliseconds in a minute;
#X text 383 233 int obj to drop decimal/floats;
#X text 406 337 counter loop;
#X text 376 410 modulo 8(count to 8 then repeat);
#X text 18 545 1000 MS == 1 Sec 60000 MS = 1 Minute;
#X connect 0 0 1 0;
#X connect 2 0 0 0;
#X connect 3 0 0 0;
#X connect 4 0 0 0;
#X connect 5 0 0 0;
#X connect 6 0 20 0;
#X connect 6 0 18 0;
#X connect 7 0 9 0;
#X connect 8 0 9 1;
#X connect 9 0 12 0;
#X connect 9 0 13 0;
#X connect 10 0 6 0;
#X connect 10 1 7 0;
#X connect 10 2 8 0;
#X connect 11 0 10 0;
#X connect 13 0 14 0;
#X connect 13 0 6 1;
#X connect 15 0 6 0;
#X connect 16 0 8 0;
#X connect 17 0 16 0;
#X connect 18 0 19 0;
#X connect 18 0 21 0;
#X connect 19 0 18 1;
#X connect 21 0 22 0;
#X connect 22 0 23 0;
#X connect 24 0 18 1;
