#N canvas 566 298 798 644 10;
#X obj 230 165 random 100;
#X floatatom 230 226 5 0 0 0 - - -;
#X obj 230 55 tgl 15 0 empty empty empty 17 7 0 10 -262144 -1 -1 0
1;
#X msg 319 135 seed 17;
#X obj 71 163 random 100;
#X floatatom 71 224 5 0 0 0 - - -;
#X obj 71 53 tgl 15 0 empty empty empty 17 7 0 10 -262144 -1 -1 0 1
;
#X msg 160 133 seed 17;
#X obj 160 -8 bng 15 250 50 0 empty empty empty 17 7 0 10 -262144 -1
-1;
#X obj 71 110 metro 1000;
#X obj 230 112 metro 1000;
#X obj 414 144 randomF 1;
#X obj 411 95 metro 1000;
#X obj 433 13 tgl 15 0 empty empty empty 17 7 0 10 -262144 -1 -1 0
1;
#X floatatom 404 197 5 0 0 0 - - -;
#X obj 516 231 metro 1000;
#X obj 538 149 tgl 15 0 empty empty empty 17 7 0 10 -262144 -1 -1 0
1;
#X obj 519 280 tripleRand 10;
#X obj 507 320 unpack f f f;
#X floatatom 591 365 5 0 0 0 - - -;
#X floatatom 478 362 5 0 0 0 - - -;
#X floatatom 531 364 5 0 0 0 - - -;
#X obj 332 301 metro 1000;
#X obj 354 219 tgl 15 0 empty empty empty 17 7 0 10 -262144 -1 -1 0
1;
#X obj 323 390 unpack f f f;
#X floatatom 407 435 5 0 0 0 - - -;
#X floatatom 294 432 5 0 0 0 - - -;
#X floatatom 347 434 5 0 0 0 - - -;
#X obj 335 350 tripleRand 5 10 20;
#X msg 440 281 30 10 2;
#X obj 80 413 drunk 10;
#X obj 87 312 tgl 15 0 empty empty empty 17 7 0 10 -262144 -1 -1 0
1;
#X obj 88 349 metro 500;
#X floatatom 80 452 5 0 0 0 - - -;
#X msg 102 375 20;
#X msg 150 376 5;
#X text 47 375 limit;
#X text 187 375 step range per jump;
#X msg 618 153 59 60 66 74;
#X msg 703 153 52 59 67 78;
#X obj 618 184 unpack f f f f;
#X obj 618 214 makenote 64 100;
#X obj 618 245 noteout 1;
#X obj 637 48 random 100;
#X obj 637 4 metro 125;
#X msg 694 -51 250;
#X msg 730 -17 125;
#X obj 637 -49 tgl 15 0 empty empty empty 17 7 0 10 -262144 -1 -1 0
1;
#X obj 601 41 bng 15 250 50 0 empty empty empty 17 7 0 10 -262144 -1
-1;
#X floatatom 636 75 5 0 0 0 - - -;
#X obj 716 134 bng 15 250 50 0 empty empty empty 17 7 0 10 -262144
-1 -1;
#X obj 600 132 bng 15 250 50 0 empty empty empty 17 7 0 10 -262144
-1 -1;
#X obj 634 112 moses 85;
#X msg 684 74 15;
#X msg 723 80 50;
#X msg 723 108 85;
#X connect 0 0 1 0;
#X connect 2 0 10 0;
#X connect 3 0 0 0;
#X connect 4 0 5 0;
#X connect 6 0 9 0;
#X connect 7 0 4 0;
#X connect 8 0 6 0;
#X connect 8 0 2 0;
#X connect 9 0 4 0;
#X connect 10 0 0 0;
#X connect 11 0 14 0;
#X connect 12 0 11 0;
#X connect 13 0 12 0;
#X connect 15 0 17 0;
#X connect 16 0 15 0;
#X connect 17 0 18 0;
#X connect 18 0 20 0;
#X connect 18 1 21 0;
#X connect 18 2 19 0;
#X connect 22 0 28 0;
#X connect 23 0 22 0;
#X connect 24 0 26 0;
#X connect 24 1 27 0;
#X connect 24 2 25 0;
#X connect 28 0 24 0;
#X connect 29 0 28 1;
#X connect 30 0 33 0;
#X connect 31 0 32 0;
#X connect 32 0 30 0;
#X connect 34 0 30 1;
#X connect 35 0 30 2;
#X connect 38 0 40 0;
#X connect 39 0 40 0;
#X connect 40 0 41 0;
#X connect 41 0 42 0;
#X connect 43 0 49 0;
#X connect 44 0 43 0;
#X connect 44 0 48 0;
#X connect 45 0 44 1;
#X connect 46 0 44 1;
#X connect 47 0 44 0;
#X connect 49 0 52 0;
#X connect 52 0 38 0;
#X connect 52 0 51 0;
#X connect 52 1 39 0;
#X connect 52 1 50 0;
#X connect 53 0 52 1;
#X connect 54 0 52 1;
#X connect 55 0 52 1;
