#N canvas 545 353 718 654 10;
#X obj 23 71 metro;
#X msg 23 98 60;
#X obj 23 125 makenote 64 500;
#X obj 23 155 noteout 1;
#X obj 23 40 tgl 15 0 empty empty empty 17 7 0 10 -262144 -1 -1 0 1
;
#X msg 119 -40 500;
#X msg 157 -41 750;
#X obj 133 5 s tempo;
#X obj 50 27 r tempo;
#X obj 72 59 bng 15 250 50 0 empty empty empty 17 7 0 10 -262144 -1
-1;
#X obj 110 58 r tempo;
#X obj 110 94 * 0.9;
#X obj 162 97 bng 15 250 50 0 empty empty empty 17 7 0 10 -262144 -1
-1;
#X obj 36 -33 knob 32 32 500 1000 0 0 tempo empty empty 0 -8 128 8
-262144 -1 -1 0 1;
#X floatatom 70 88 5 0 0 0 - - -;
#X obj 359 42 tgl 15 0 empty empty empty 17 7 0 10 -262144 -1 -1 0
1;
#X msg 386 42 250;
#X msg 426 42 500;
#X msg 465 43 750;
#X obj 359 81 metro;
#X obj 359 112 counter;
#X floatatom 359 143 5 0 0 0 - - -;
#X obj 359 174 % 8;
#X obj 359 219 sel 0 1 2 3 4 5 6 7;
#X msg 433 258 60 70 67 63 62 72 67 70;
#X msg 467 290 578 63 65 60 67 74 63 68;
#X obj 440 314 unpack f f f f f f f f;
#X floatatom 297 351 5 0 0 0 - - -;
#X floatatom 345 352 5 0 0 0 - - -;
#X floatatom 388 354 5 0 0 0 - - -;
#X floatatom 431 354 5 0 0 0 - - -;
#X floatatom 474 355 5 0 0 0 - - -;
#X floatatom 516 355 5 0 0 0 - - -;
#X floatatom 557 355 5 0 0 0 - - -;
#X floatatom 602 356 5 0 0 0 - - -;
#X obj 327 445 makenote 64 500;
#X obj 327 477 noteout 1;
#X obj 23 71 metro;
#X msg 23 98 60;
#X obj 23 125 makenote 64 500;
#X obj 23 155 noteout 1;
#X obj 23 40 tgl 15 0 empty empty empty 17 7 0 10 -262144 -1 -1 0 1
;
#X msg 119 -40 500;
#X msg 157 -41 750;
#X obj 133 5 s tempo;
#X obj 50 27 r tempo;
#X obj 72 59 bng 15 250 50 0 empty empty empty 17 7 0 10 -262144 -1
-1;
#X obj 110 58 r tempo;
#X obj 110 94 * 0.9;
#X obj 162 97 bng 15 250 50 0 empty empty empty 17 7 0 10 -262144 -1
-1;
#X obj 36 -33 knob 32 32 500 1000 0 0 tempo empty empty 0 -8 128 8
-262144 -1 -1 0 1;
#X floatatom 70 88 5 0 0 0 - - -;
#X obj 359 42 tgl 15 0 empty empty empty 17 7 0 10 -262144 -1 -1 0
1;
#X msg 386 42 250;
#X msg 426 42 500;
#X msg 465 43 750;
#X obj 359 81 metro;
#X obj 359 112 counter;
#X floatatom 359 143 5 0 0 0 - - -;
#X obj 359 174 % 8;
#X obj 359 219 sel 0 1 2 3 4 5 6 7;
#X msg 433 258 60 70 67 63 62 72 67 70;
#X msg 467 290 578 63 65 60 67 74 63 68;
#X obj 440 314 unpack f f f f f f f f;
#X floatatom 297 351 5 0 0 0 - - -;
#X floatatom 345 352 5 0 0 0 - - -;
#X floatatom 388 354 5 0 0 0 - - -;
#X floatatom 431 354 5 0 0 0 - - -;
#X floatatom 474 355 5 0 0 0 - - -;
#X floatatom 516 355 5 0 0 0 - - -;
#X floatatom 557 355 5 0 0 0 - - -;
#X floatatom 602 356 5 0 0 0 - - -;
#X obj 327 445 makenote 64 500;
#X obj 327 477 noteout 1;
#X obj 595 -32 hradio 15 1 0 3 tempo empty tempo_chooser 0 -8 0 10
-262144 -1 -1 0;
#X obj 408 -4 sel 0 1 2;
#X floatatom 555 -7 5 0 0 0 - - -;
#X obj 408 -39 r tempo;
#X floatatom 488 -3 5 0 0 0 - - -;
#X obj 601 16 hradio 15 1 0 3 sequence empty sequence_chooser 0 -8
0 10 -262144 -1 -1 0;
#X floatatom 564 42 5 0 0 0 - - -;
#X obj 611 188 r sequence;
#X obj 566 228 sel 0 1 2;
#X floatatom 652 231 5 0 0 0 - - -;
#X obj 545 87 knob 32 32 34 89 0 0 velocity empty note_velocity 0 -8
128 8 -262144 -1 -1 0 1;
#X obj 483 409 r velocity;
#X obj 627 86 knob 32 32 200 700 0 0 note_duration empty note_duration
0 -8 128 8 -262144 -1 -1 0 1;
#X floatatom 507 443 5 0 0 0 - - -;
#X floatatom 574 444 5 0 0 0 - - -;
#X obj 560 413 r note_duration;
#X floatatom 359 197 5 0 0 0 - - -;
#X connect 0 0 1 0;
#X connect 1 0 2 0;
#X connect 2 0 3 0;
#X connect 2 1 3 1;
#X connect 4 0 0 0;
#X connect 5 0 7 0;
#X connect 6 0 7 0;
#X connect 8 0 0 1;
#X connect 8 0 9 0;
#X connect 8 0 14 0;
#X connect 10 0 11 0;
#X connect 10 0 12 0;
#X connect 11 0 2 2;
#X connect 15 0 19 0;
#X connect 15 0 20 0;
#X connect 16 0 19 1;
#X connect 17 0 19 1;
#X connect 18 0 19 1;
#X connect 19 0 20 0;
#X connect 20 0 21 0;
#X connect 21 0 22 0;
#X connect 22 0 90 0;
#X connect 23 0 27 0;
#X connect 23 1 28 0;
#X connect 23 2 29 0;
#X connect 23 3 30 0;
#X connect 23 4 31 0;
#X connect 23 5 32 0;
#X connect 23 6 33 0;
#X connect 23 7 34 0;
#X connect 24 0 26 0;
#X connect 25 0 26 0;
#X connect 26 0 27 0;
#X connect 26 1 28 0;
#X connect 26 2 29 0;
#X connect 26 3 30 0;
#X connect 26 4 31 0;
#X connect 26 5 32 0;
#X connect 26 6 33 0;
#X connect 26 7 34 0;
#X connect 27 0 35 0;
#X connect 28 0 35 0;
#X connect 29 0 35 0;
#X connect 30 0 35 0;
#X connect 31 0 35 0;
#X connect 32 0 35 0;
#X connect 33 0 35 0;
#X connect 34 0 35 0;
#X connect 35 0 36 0;
#X connect 35 1 36 1;
#X connect 37 0 38 0;
#X connect 38 0 39 0;
#X connect 39 0 40 0;
#X connect 39 1 40 1;
#X connect 41 0 37 0;
#X connect 42 0 44 0;
#X connect 43 0 44 0;
#X connect 45 0 37 1;
#X connect 45 0 46 0;
#X connect 45 0 51 0;
#X connect 47 0 48 0;
#X connect 47 0 49 0;
#X connect 48 0 39 2;
#X connect 52 0 56 0;
#X connect 53 0 56 1;
#X connect 54 0 56 1;
#X connect 55 0 56 1;
#X connect 56 0 57 0;
#X connect 57 0 58 0;
#X connect 58 0 59 0;
#X connect 60 0 64 0;
#X connect 60 1 65 0;
#X connect 60 2 66 0;
#X connect 60 3 67 0;
#X connect 60 4 68 0;
#X connect 60 5 69 0;
#X connect 60 6 70 0;
#X connect 60 7 71 0;
#X connect 61 0 63 0;
#X connect 62 0 63 0;
#X connect 63 0 64 0;
#X connect 63 1 65 0;
#X connect 63 2 66 0;
#X connect 63 3 67 0;
#X connect 63 4 68 0;
#X connect 63 5 69 0;
#X connect 63 6 70 0;
#X connect 63 7 71 0;
#X connect 64 0 72 0;
#X connect 65 0 72 0;
#X connect 66 0 72 0;
#X connect 67 0 72 0;
#X connect 68 0 72 0;
#X connect 69 0 72 0;
#X connect 70 0 72 0;
#X connect 71 0 72 0;
#X connect 72 0 73 0;
#X connect 72 1 73 1;
#X connect 74 0 76 0;
#X connect 75 0 16 0;
#X connect 75 1 17 0;
#X connect 75 2 18 0;
#X connect 77 0 75 0;
#X connect 77 0 78 0;
#X connect 79 0 80 0;
#X connect 81 0 82 0;
#X connect 81 0 83 0;
#X connect 82 0 24 0;
#X connect 82 1 25 0;
#X connect 85 0 35 1;
#X connect 85 0 87 0;
#X connect 89 0 35 2;
#X connect 89 0 88 0;
#X connect 90 0 23 0;
