#N canvas 568 446 754 583 10;
#X obj 296 145 metro 500;
#X msg 346 91 250;
#X msg 383 128 1500;
#X msg 271 409 60;
#X obj 270 451 makenote 64 250;
#X obj 270 495 noteout 1;
#X msg 308 410 62;
#X msg 347 411 64;
#X msg 384 411 65;
#X msg 419 411 67;
#X msg 455 411 70;
#X msg 490 412 72;
#X obj 261 180 bng 15 250 50 0 empty empty empty 17 7 0 10 -262144
-1 -1;
#X msg 386 96 500;
#X obj 296 187 counter;
#X floatatom 296 217 5 0 0 0 - - -;
#X obj 297 103 tgl 15 0 empty empty empty 17 7 0 10 -262144 -1 -1 0
1;
#X obj 277 321 sel 0 1 2 3 4 5 6 7;
#X obj 296 249 % 8;
#X floatatom 296 281 5 0 0 0 - - -;
#X text 32 547 ?other important scales?;
#X text 193 547 or chords...;
#X obj 363 160 bng 15 250 50 0 empty empty empty 17 7 0 10 -262144
-1 -1;
#X text 385 160 reverse;
#X connect 0 0 12 0;
#X connect 0 0 14 0;
#X connect 1 0 0 1;
#X connect 2 0 0 1;
#X connect 3 0 4 0;
#X connect 4 0 5 0;
#X connect 6 0 4 0;
#X connect 7 0 4 0;
#X connect 8 0 4 0;
#X connect 9 0 4 0;
#X connect 10 0 4 0;
#X connect 11 0 4 0;
#X connect 13 0 0 1;
#X connect 14 0 15 0;
#X connect 15 0 18 0;
#X connect 16 0 0 0;
#X connect 17 0 3 0;
#X connect 17 1 9 0;
#X connect 17 2 10 0;
#X connect 17 3 6 0;
#X connect 17 4 11 0;
#X connect 17 5 7 0;
#X connect 17 6 8 0;
#X connect 17 7 9 0;
#X connect 17 8 3 0;
#X connect 18 0 19 0;
#X connect 19 0 17 0;
#X connect 22 0 14 1;
