#N canvas 651 157 818 752 10;
#X obj 312 82 loadbang;
#X obj 312 117 hradio 15 1 0 3 tempo empty tempo_chooser 0 -8 0 10
-262144 -1 -1 0;
#X floatatom 297 148 5 0 0 0 - - -;
#X obj 348 143 loadbang;
#X obj 348 180 hradio 15 1 0 3 sequence empty sequence_chooser 0 -8
0 10 -262144 -1 -1 0;
#X floatatom 333 211 5 0 0 0 - - -;
#X obj 385 239 knob 32 32 0 127 0 0 velocity empty note_velocity 0
-8 128 8 -262144 -1 -1 0 1;
#X obj 467 240 knob 32 32 0 127 0 0 note_duration empty note_duration
0 -8 128 8 -262144 -1 -1 0 1;
#X obj 467 187 loadbang;
#N canvas 51 53 568 709 sequence_guts 1;
#X obj 107 48 r tempo;
#X obj 103 88 sel 0 1 2;
#X floatatom 189 92 5 0 0 0 - - -;
#X msg 103 114 250;
#X msg 145 119 500;
#X msg 190 123 750;
#X obj 46 153 metro;
#X obj 45 187 counter;
#X obj 98 153 loadbang;
#X floatatom 47 223 5 0 0 0 - - -;
#X obj 45 260 % 8;
#X floatatom 46 301 5 0 0 0 - - -;
#X obj 43 334 hradio 15 1 0 8 empty empty empty 0 -8 0 10 -262144 -1
-1 0;
#X obj 43 358 sel 0 1 2 3 4 5 6 7;
#X obj 143 234 r sequence;
#X obj 143 260 sel 0 1 2;
#X floatatom 210 260 5 0 0 0 - - -;
#X msg 139 297 60 70 67 63 62 72 67 70;
#X msg 310 297 58 63 65 60 67 74 63 68;
#X floatatom 40 423 5 0 0 0 - - -;
#X floatatom 78 423 5 0 0 0 - - -;
#X floatatom 117 423 5 0 0 0 - - -;
#X floatatom 156 423 5 0 0 0 - - -;
#X floatatom 196 423 5 0 0 0 - - -;
#X floatatom 234 423 5 0 0 0 - - -;
#X floatatom 274 427 5 0 0 0 - - -;
#X floatatom 314 427 5 0 0 0 - - -;
#X obj 192 334 unpack f f f f f f f f;
#X obj 38 457 i;
#X obj 76 457 i;
#X obj 116 457 i;
#X obj 157 457 i;
#X obj 199 457 i;
#X obj 237 457 i;
#X obj 280 457 i;
#X obj 321 457 i;
#X obj 104 495 r velocity;
#X obj 199 495 r note_duration;
#X obj 40 551 makenote 64 500;
#X obj 39 590 noteout 1;
#X floatatom 210 537 5 0 0 0 - - -;
#X floatatom 118 526 5 0 0 0 - - -;
#X obj 41 108 inlet;
#X obj 176 591 outlet;
#X obj 270 591 outlet;
#X text 162 610 step number;
#X text 271 610 pitches;
#X connect 0 0 2 0;
#X connect 0 0 1 0;
#X connect 1 0 3 0;
#X connect 1 1 4 0;
#X connect 1 2 5 0;
#X connect 3 0 6 1;
#X connect 4 0 6 1;
#X connect 5 0 6 1;
#X connect 6 0 7 0;
#X connect 7 0 9 0;
#X connect 8 0 7 0;
#X connect 9 0 10 0;
#X connect 10 0 11 0;
#X connect 11 0 12 0;
#X connect 12 0 13 0;
#X connect 12 0 43 0;
#X connect 13 0 28 0;
#X connect 13 1 29 0;
#X connect 13 2 30 0;
#X connect 13 3 31 0;
#X connect 13 4 32 0;
#X connect 13 5 33 0;
#X connect 13 6 34 0;
#X connect 13 7 35 0;
#X connect 14 0 16 0;
#X connect 14 0 15 0;
#X connect 15 0 18 0;
#X connect 15 0 17 0;
#X connect 17 0 27 0;
#X connect 18 0 27 0;
#X connect 19 0 28 1;
#X connect 20 0 29 1;
#X connect 21 0 30 1;
#X connect 22 0 31 1;
#X connect 23 0 32 1;
#X connect 24 0 33 1;
#X connect 25 0 34 1;
#X connect 26 0 35 1;
#X connect 27 0 19 0;
#X connect 27 1 20 0;
#X connect 27 2 21 0;
#X connect 27 3 22 0;
#X connect 27 4 23 0;
#X connect 27 5 24 0;
#X connect 27 6 25 0;
#X connect 27 7 26 0;
#X connect 28 0 38 0;
#X connect 28 0 44 0;
#X connect 29 0 38 0;
#X connect 29 0 44 0;
#X connect 30 0 38 0;
#X connect 30 0 44 0;
#X connect 31 0 38 0;
#X connect 31 0 44 0;
#X connect 32 0 38 0;
#X connect 32 0 44 0;
#X connect 33 0 38 0;
#X connect 33 0 44 0;
#X connect 34 0 38 0;
#X connect 34 0 44 0;
#X connect 35 0 38 0;
#X connect 35 0 44 0;
#X connect 36 0 38 1;
#X connect 36 0 41 0;
#X connect 37 0 38 2;
#X connect 37 0 40 0;
#X connect 38 0 39 0;
#X connect 42 0 6 0;
#X restore 156 202 pd sequence_guts;
#X obj 156 179 tgl 15 0 empty empty empty 17 7 0 10 -262144 -1 -1 0
1;
#X floatatom 156 226 5 0 0 0 - - -;
#X floatatom 249 227 5 0 0 0 - - -;
#X connect 0 0 1 0;
#X connect 1 0 2 0;
#X connect 3 0 4 0;
#X connect 4 0 5 0;
#X connect 8 0 7 0;
#X connect 9 0 11 0;
#X connect 9 1 12 0;
#X connect 10 0 9 0;
